<svg width="1125" height="506" viewBox="0 0 1125 506" fill="none" xmlns="http://www.w3.org/2000/svg">
<mask id="mask0" mask-type="alpha" maskUnits="userSpaceOnUse" x="0" y="0" width="1125" height="506">
<rect width="1125" height="506" fill="#081158"/>
</mask>
<g mask="url(#mask0)">
<g opacity="0.5">
<path d="M1125 10.0847C1080.03 -9.15078 960.975 -14.0799 844.543 120.088C699.003 287.797 320.811 276.977 192.268 336.487C89.4342 384.095 48.1447 469.332 40.3542 506" stroke="#88B0A7"/>
<path d="M1125 202.165C1089.65 190.379 996.054 187.359 904.522 269.561C790.107 372.312 492.796 365.683 391.744 402.143C310.902 431.312 278.442 483.535 272.318 506" stroke="#88B0A7"/>
<path d="M1125 352.336C1098.91 346.376 1029.83 344.848 962.279 386.422C877.837 438.388 658.411 435.035 583.831 453.475C524.167 468.227 500.211 494.638 495.691 506" stroke="#88B0A7"/>
<path d="M1125 114.856C1085.01 99.6839 979.164 95.7962 875.643 201.619C746.242 333.896 409.988 325.362 295.7 372.3C204.269 409.85 167.558 477.079 160.632 506" stroke="#88B0A7"/>
<path d="M1125 265.027C1093.56 255.68 1010.35 253.285 928.958 318.479C827.224 399.972 562.864 394.714 473.011 423.631C401.129 446.764 372.267 488.183 366.822 506" stroke="#88B0A7"/>
<path d="M1125 429.168C1105.41 426.188 1053.54 425.424 1002.82 446.211C939.417 472.194 774.66 470.518 718.661 479.737C673.862 487.113 655.875 500.319 652.481 506" stroke="#88B0A7"/>
</g>
</g>
</svg>
