<svg width="720" height="332" viewBox="0 0 720 332" fill="none" xmlns="http://www.w3.org/2000/svg">
<path d="M719 324.423C689.23 336.968 610.421 340.183 533.347 252.682C437.004 143.306 186.653 150.363 101.562 111.552C33.4893 80.5032 6.15705 24.9137 1.00002 1" stroke="#5B95D2"/>
<path d="M719 199.154C695.597 206.839 633.642 208.809 573.051 155.199C497.312 88.1875 300.502 92.5109 233.608 68.7325C180.094 49.7097 158.607 15.6514 154.552 1" stroke="#5B95D2"/>
<path d="M719 101.216C701.727 105.103 656.003 106.099 611.284 78.9859C555.386 45.0949 410.134 47.2814 360.764 35.2555C321.268 25.6348 305.41 8.40988 302.418 1" stroke="#5B95D2"/>
<path d="M719 256.094C692.531 265.989 622.461 268.524 553.934 199.51C468.275 113.241 245.686 118.807 170.031 88.1958C109.506 63.7068 85.205 19.8615 80.6198 1" stroke="#5B95D2"/>
<path d="M719 158.156C698.19 164.252 643.102 165.814 589.227 123.296C521.882 70.1487 346.884 73.5776 287.405 54.7189C239.821 39.6319 220.716 12.62 217.111 1" stroke="#5B95D2"/>
<path d="M719 51.1078C706.031 53.0514 671.698 53.5494 638.121 39.993C596.15 23.0474 487.087 24.1407 450.017 18.1278C420.362 13.3174 408.455 4.70494 406.208 1" stroke="#5B95D2"/>
</svg>
