<svg width="423" height="195" viewBox="0 0 423 195" fill="none" xmlns="http://www.w3.org/2000/svg">
<path d="M1.00003 4.85623C18.4558 -2.49948 64.6655 -4.38437 109.858 46.9217C166.349 111.054 313.142 106.917 363.035 129.673C402.95 147.879 418.976 180.474 422 194.496" stroke="#5B95D2"/>
<path d="M1.00002 78.3081C14.7227 73.8014 51.0499 72.6466 86.5775 104.081C130.987 143.373 246.387 140.838 285.61 154.781C316.988 165.935 329.587 185.905 331.964 194.496" stroke="#5B95D2"/>
<path d="M1.00001 135.734C11.1278 133.455 37.9386 132.871 64.1592 148.768C96.935 168.641 182.104 167.359 211.052 174.41C234.21 180.051 243.509 190.151 245.263 194.496" stroke="#5B95D2"/>
<path d="M1.00003 44.9209C16.5201 39.1192 57.6055 37.6325 97.7866 78.0993C148.013 128.683 278.528 125.419 322.889 143.368C358.377 157.727 372.626 183.436 375.315 194.496" stroke="#5B95D2"/>
<path d="M1.00002 102.347C13.2018 98.7727 45.5028 97.8568 77.0928 122.787C116.58 153.95 219.19 151.94 254.066 162.998C281.967 171.844 293.169 187.682 295.283 194.496" stroke="#5B95D2"/>
<path d="M1.00001 165.115C8.60449 163.975 28.7354 163.683 48.4233 171.632C73.0331 181.568 136.983 180.927 158.718 184.453C176.107 187.273 183.089 192.323 184.406 194.496" stroke="#5B95D2"/>
</svg>
